<svg width="19" height="20" viewBox="0 0 19 20" fill="none" xmlns="http://www.w3.org/2000/svg">
<path d="M17.2682 14.0296C18.1818 12.2081 18.4252 10.124 17.9558 8.14155C17.4863 6.1591 16.334 4.40431 14.7 3.1838C13.066 1.96328 11.0543 1.35466 9.01645 1.46425C6.97856 1.57384 5.04404 2.39468 3.55089 3.78336C2.05775 5.17204 1.10093 7.04025 0.847606 9.06157C0.594286 11.0829 1.06057 13.1288 2.165 14.8418C3.26943 16.5548 4.94177 17.826 6.88983 18.4333C8.83788 19.0406 10.9378 18.9453 12.8226 18.1642C13.1892 17.9984 13.6033 17.9694 13.9894 18.0826L16.5797 18.8746C16.7164 18.9174 16.8618 18.9241 17.0017 18.894C17.1417 18.864 17.2715 18.7983 17.3785 18.7033C17.4854 18.6082 17.5659 18.4872 17.612 18.3519C17.6581 18.2166 17.6683 18.0716 17.6415 17.9312L17.1165 15.1244C17.0444 14.7528 17.0977 14.3678 17.2682 14.0296V14.0296Z" stroke="#3C3C3B" stroke-width="1.5" stroke-miterlimit="10"/>
</svg>
