<svg width="16" height="17" viewBox="0 0 16 17" fill="none" xmlns="http://www.w3.org/2000/svg">
<path d="M13.6653 15.9999L8.11126 11.2714L2.56889 16.0116C2.48119 16.0872 2.37362 16.1362 2.2589 16.1528C2.14419 16.1693 2.02713 16.1527 1.92157 16.1049C1.81601 16.0572 1.72638 15.9802 1.66326 15.8831C1.60015 15.7861 1.5662 15.6731 1.56543 15.5574V2.24534C1.56543 2.11533 1.59108 1.9866 1.64092 1.86649C1.69076 1.74638 1.76383 1.63725 1.85592 1.54533C1.94802 1.4534 2.05735 1.38047 2.17768 1.33072C2.29801 1.28097 2.42697 1.25537 2.55721 1.25537H13.677C13.8072 1.25537 13.9362 1.28097 14.0565 1.33072C14.1768 1.38047 14.2862 1.4534 14.3783 1.54533C14.4704 1.63725 14.5434 1.74638 14.5933 1.86649C14.6431 1.9866 14.6687 2.11533 14.6687 2.24534V15.5457C14.668 15.6614 14.634 15.7745 14.5709 15.8715C14.5078 15.9685 14.4182 16.0455 14.3126 16.0933C14.2071 16.1411 14.09 16.1577 13.9753 16.1411C13.8606 16.1246 13.753 16.0756 13.6653 15.9999V15.9999Z" stroke="#3C3C3B" stroke-width="1.5" stroke-linejoin="round"/>
</svg>
