<svg width="13" height="11" viewBox="0 0 13 11" fill="none" xmlns="http://www.w3.org/2000/svg">
<path d="M6.38704 10.321L11.0543 6.54751C11.578 6.11871 11.9602 5.5424 12.1511 4.89368C12.366 4.2728 12.4012 3.60402 12.2526 2.96408C12.1041 2.32414 11.7778 1.73898 11.3112 1.2757C10.8447 0.812428 10.2567 0.489805 9.61482 0.34488C8.97293 0.199955 8.3031 0.238593 7.6822 0.456341C7.11731 0.762238 6.65176 1.22287 6.34037 1.78403C6.02899 1.22287 5.56343 0.762238 4.99853 0.456341C4.38028 0.250528 3.71673 0.22108 3.08262 0.371324C2.44851 0.521567 1.86901 0.845529 1.40938 1.30673C0.949745 1.76793 0.628237 2.34806 0.481055 2.98178C0.333873 3.6155 0.366862 4.27766 0.576307 4.89368C0.799421 5.535 1.20488 6.09756 1.74312 6.51257L6.38704 10.321Z" fill="#3C3C3B"/>
</svg>
